<?xml version="1.0" standalone="no"?>
<!DOCTYPE svg PUBLIC "-//W3C//DTD SVG 20010904//EN"
 "http://www.w3.org/TR/2001/REC-SVG-20010904/DTD/svg10.dtd">
<svg version="1.0" xmlns="http://www.w3.org/2000/svg"
 width="512.000000pt" height="512.000000pt" viewBox="0 0 512.000000 512.000000"
 preserveAspectRatio="xMidYMid meet">
<metadata>
Created by potrace 1.11, written by Peter Selinger 2001-2013
</metadata>
<g transform="translate(0.000000,512.000000) scale(0.100000,-0.100000)"
fill="#000000" stroke="none">
<path d="M90 5105 c0 -8 4 -15 9 -15 5 0 14 7 21 15 10 13 9 15 -9 15 -12 0
-21 -6 -21 -15z"/>
<path d="M1068 5104 c-174 -31 -383 -119 -525 -220 -219 -157 -401 -402 -482
-651 -59 -182 -56 -104 -56 -1673 0 -1192 2 -1457 14 -1515 32 -162 104 -335
200 -480 61 -93 207 -244 306 -317 98 -72 266 -158 383 -195 l87 -28 1565 0
1565 0 87 28 c117 37 285 123 383 195 99 73 245 224 307 318 102 153 172 329
203 508 23 133 23 2839 0 2972 -34 195 -118 394 -233 549 -73 99 -224 245
-318 307 -95 63 -241 133 -339 163 -187 57 -137 55 -1664 54 -1152 -1 -1420
-3 -1483 -15z m1752 -728 c263 -35 637 -181 781 -304 29 -25 25 -76 -8 -102
-37 -29 -93 -23 -153 17 -50 34 -194 104 -273 133 -230 83 -389 113 -607 113
-263 0 -492 -53 -747 -174 -197 -93 -461 -303 -581 -462 -106 -142 -133 -183
-181 -277 -203 -394 -253 -814 -146 -1223 32 -123 115 -321 180 -432 137 -233
362 -463 587 -599 105 -64 298 -150 405 -181 313 -91 653 -91 966 0 181 52
408 169 562 290 86 67 274 257 315 318 25 37 63 57 107 57 25 0 63 -50 63 -84
0 -56 -282 -349 -450 -468 -52 -37 -142 -92 -200 -122 -295 -153 -549 -216
-880 -216 -331 0 -585 63 -880 216 -163 85 -280 173 -441 334 -114 114 -163
171 -226 267 -92 138 -168 288 -208 413 -16 47 -31 90 -35 95 -10 13 -45 170
-61 270 -21 131 -16 456 10 598 32 179 121 427 208 581 181 318 477 603 793
761 151 76 412 158 570 180 128 17 401 18 530 1z m620 -566 c26 -25 31 -36 27
-58 -5 -26 -94 -171 -567 -921 -128 -204 -151 -246 -138 -255 8 -6 186 -139
396 -295 367 -273 382 -285 382 -317 0 -43 -59 -109 -92 -102 -13 2 -201 137
-418 299 -217 162 -410 301 -428 308 -43 18 -82 66 -82 100 0 29 24 65 71 111
15 14 96 135 180 270 271 436 521 834 541 863 28 39 84 38 128 -3z"/>
</g>
</svg>
